<svg xmlns="http://www.w3.org/2000/svg" width="100%" height="100%" data-name="Layer 1" viewBox="0 0 612.34 467.13">
  <path fill="#AC885B" d="M252.76 423.732c-6.358-23.915 7.763-47.226 24.263-63.363 8.794-8.6 18.587-16.076 28.137-23.798a300.498 300.498 0 0026.135-23.537c15.92-16.295 29.808-34.918 39.005-55.85 8.746-19.907 12.88-41.591 10.832-63.312-1.942-20.6-9.326-40.863-22.908-56.667q-2.539-2.954-5.341-5.663c-1.002-.973-2.538.559-1.534 1.533 15.167 14.728 23.995 34.687 26.983 55.45 3.081 21.413-.093 43.243-8.1 63.263-8.53 21.326-22.094 40.355-37.824 56.962a279.005 279.005 0 01-25.233 23.394c-9.488 7.816-19.347 15.2-28.381 23.552-16.651 15.394-31.616 36.568-29.56 60.404a47.972 47.972 0 001.435 8.209 1.085 1.085 0 002.092-.577z"/>
  <path fill="#292929" d="M319.35 287.58a1.085 1.085 0 01-1.87 1.1q-3.735-6.405-7.05-13.03c-1.49-3-2.92-6.04-4.26-9.11A227.698 227.698 0 01287.41 158a213.803 213.803 0 014.39-30.23c.45-2.02.93-4.04 1.46-6.04.8-.13 1.58-.3 2.35-.5-4.7 17.04-6.59 35.01-6.65 52.59a225.725 225.725 0 007.61 58.91 221.604 221.604 0 0022.78 54.85z"/>
  <path fill="#292929" d="M461.79 228.78c-8.13 17.49-21.79 31.85-37.11 43.29-17.37 12.97-37.04 22.33-56.53 31.62-1.25.6-2.35-1.27-1.09-1.87 4.65-2.22 9.3-4.44 13.92-6.7 18.48-9.07 36.8-19.05 52.27-32.79 14.31-12.71 25.97-28.54 31.29-47.11 5.55-19.33 4.5-40.23-1.47-59.33a130.026 130.026 0 00-15.79-32.74q-3.36-5.085-7.11-9.89-2.73-3.495-5.64-6.85a186.892 186.892 0 00-20.62-20.25 118.36 118.36 0 00-25.3-16.7 72.23 72.23 0 00-30.01-7.26 53.9 53.9 0 00-28.01 7.4 63.353 63.353 0 00-15.44 12.92c-.29-.73-.61-1.45-.97-2.15 7.64-8.45 17.17-15.09 28.26-18.24 20.49-5.82 42.12 1.01 59.41 12.31a159.233 159.233 0 0123.53 19.18c2.69 2.61 5.31 5.3 7.83 8.07q4.56 4.98 8.71 10.31s.02.01.02.02q1.395 1.785 2.74 3.62c11.69 15.9 20.42 34.15 23.9 53.66 3.56 19.95 1.8 40.99-6.79 59.48z"/>
  <!-- <path fill="#292929" d="M448.05 207.82c-8.12 17.49-21.78 31.85-37.11 43.29-16.61 12.39-35.32 21.5-53.96 30.39-.85.41-1.71.81-2.56 1.22a1.073 1.073 0 01-.89.04 1.039 1.039 0 01-.21-1.91c.72-.35 1.45-.69 2.17-1.03 1.24-.6 2.47-1.19 3.71-1.78q4.035-1.92 8.05-3.89c18.47-9.06 36.8-19.05 52.26-32.79 14.32-12.71 25.98-28.54 31.3-47.11 5.54-19.33 4.49-40.22-1.48-59.32a124.737 124.737 0 00-9.16-21.67c-2.13-3.96-4.46-7.83-6.96-11.57a158.225 158.225 0 00-12.42-16.25 185.818 185.818 0 00-20.61-20.24 118.296 118.296 0 00-25.31-16.7 72.198 72.198 0 00-30-7.27 53.936 53.936 0 00-28.02 7.4 65.414 65.414 0 00-19.03 17.35 95.262 95.262 0 00-13.95 27.64 168.647 168.647 0 00-6.2 26.5 221.116 221.116 0 00-2.45 32.73 226.226 226.226 0 007.61 58.92 222.142 222.142 0 0022.78 54.85.92.92 0 01.07.14 1.086 1.086 0 01-1.94.95q-3.735-6.39-7.04-13.03a227.538 227.538 0 01-23.03-117.65q.66-8.91 2.05-17.76.975-6.27 2.35-12.47a125.03 125.03 0 0110.05-29.32 83.611 83.611 0 017.49-12.17c8.29-11.21 19.53-20.29 33.1-24.14 20.49-5.83 42.11 1 59.41 12.3a160.28 160.28 0 0123.53 19.18 176.337 176.337 0 0119.29 22.02A145.93 145.93 0 01441.92 112s.02.01.02.02c1.95 3.63 3.74 7.34 5.34 11.13a117.304 117.304 0 017.56 25.18c3.57 19.96 1.81 40.99-6.79 59.49z"/> -->
</svg>
